<svg aria-hidden="true" style="position: absolute; width: 0; height: 0; overflow: hidden;" version="1.1" xmlns="http://www.w3.org/2000/svg" xmlns:xlink="http://www.w3.org/1999/xlink">
  <defs>
    <symbol id="icon-power" viewBox="0 0 256 256">
      <path d="M116,128V48a12,12,0,0,1,24,0v80a12,12,0,0,1-24,0Zm66.55-82a12,12,0,0,0-13.1,20.1C191.41,80.37,204,103,204,128a76,76,0,0,1-152,0c0-25,12.59-47.63,34.55-61.95A12,12,0,0,0,73.45,46C44.56,64.78,28,94.69,28,128a100,100,0,0,0,200,0C228,94.69,211.44,64.78,182.55,46Z"></path>
    </symbol>
    <symbol id="icon-settings" viewBox="0 0 256 256">
      <path d="M128,76a52,52,0,1,0,52,52A52.06,52.06,0,0,0,128,76Zm0,80a28,28,0,1,1,28-28A28,28,0,0,1,128,156Zm113.86-49.57A12,12,0,0,0,236,98.34L208.21,82.49l-.11-31.31a12,12,0,0,0-4.25-9.12,116,116,0,0,0-38-21.41,12,12,0,0,0-9.68.89L128,37.27,99.83,21.53a12,12,0,0,0-9.7-.9,116.06,116.06,0,0,0-38,21.47,12,12,0,0,0-4.24,9.1l-.14,31.34L20,98.35a12,12,0,0,0-5.85,8.11,110.7,110.7,0,0,0,0,43.11A12,12,0,0,0,20,157.66l27.82,15.85.11,31.31a12,12,0,0,0,4.25,9.12,116,116,0,0,0,38,21.41,12,12,0,0,0,9.68-.89L128,218.73l28.14,15.74a12,12,0,0,0,9.7.9,116.06,116.06,0,0,0,38-21.47,12,12,0,0,0,4.24-9.1l.14-31.34,27.81-15.81a12,12,0,0,0,5.85-8.11A110.7,110.7,0,0,0,241.86,106.43Zm-22.63,33.18-26.88,15.28a11.94,11.94,0,0,0-4.55,4.59c-.54,1-1.11,1.93-1.7,2.88a12,12,0,0,0-1.83,6.31L184.13,199a91.83,91.83,0,0,1-21.07,11.87l-27.15-15.19a12,12,0,0,0-5.86-1.53h-.29c-1.14,0-2.3,0-3.44,0a12.08,12.08,0,0,0-6.14,1.51L93,210.82A92.27,92.27,0,0,1,71.88,199l-.11-30.24a12,12,0,0,0-1.83-6.32c-.58-.94-1.16-1.91-1.7-2.88A11.92,11.92,0,0,0,63.7,155L36.8,139.63a86.53,86.53,0,0,1,0-23.24l26.88-15.28a12,12,0,0,0,4.55-4.58c.54-1,1.11-1.94,1.7-2.89a12,12,0,0,0,1.83-6.31L71.87,57A91.83,91.83,0,0,1,92.94,45.17l27.15,15.19a11.92,11.92,0,0,0,6.15,1.52c1.14,0,2.3,0,3.44,0a12.08,12.08,0,0,0,6.14-1.51L163,45.18A92.27,92.27,0,0,1,184.12,57l.11,30.24a12,12,0,0,0,1.83,6.32c.58.94,1.16,1.91,1.7,2.88A11.92,11.92,0,0,0,192.3,101l26.9,15.33A86.53,86.53,0,0,1,219.23,139.61Z"></path>
    </symbol>
    <symbol id="icon-heart" viewBox="0 0 256 256">
      <path d="M240,98a57.63,57.63,0,0,1-17,41L133.7,229.62a8,8,0,0,1-11.4,0L33,139a58,58,0,0,1,82-82.1L128,69.05l13.09-12.19A58,58,0,0,1,240,98Z"></path>
    </symbol>
    <symbol id="icon-fire" viewBox="0 0 256 256">
      <path d="M143.38,17.85a8,8,0,0,0-12.63,3.41l-22,60.41L84.59,58.26a8,8,0,0,0-11.93.89C51,87.53,40,116.08,40,144a88,88,0,0,0,176,0C216,84.55,165.21,36,143.38,17.85Zm40.51,135.49a57.6,57.6,0,0,1-46.56,46.55A7.65,7.65,0,0,1,136,200a8,8,0,0,1-1.32-15.89c16.57-2.79,30.63-16.85,33.44-33.45a8,8,0,0,1,15.78,2.68Z"></path>
    </symbol>
    <symbol id="icon-list" viewBox="0 0 256 256">
      <path d="M228,128a12,12,0,0,1-12,12H40a12,12,0,0,1,0-24H216A12,12,0,0,1,228,128ZM40,76H216a12,12,0,0,0,0-24H40a12,12,0,0,0,0,24ZM216,180H40a12,12,0,0,0,0,24H216a12,12,0,0,0,0-24Z"></path>
    </symbol>
  </defs>
</svg>
